<svg width="78" height="78" viewBox="0 0 78 78" fill="none" xmlns="http://www.w3.org/2000/svg">
<path d="M68.8087 38.2562H68.7869C68.4912 38.2562 68.2064 38.1437 67.9906 37.9442L55.7391 26.5852C55.2639 26.1444 55.2367 25.4025 55.6757 24.9291C56.1164 24.4538 56.8584 24.4266 57.3318 24.8656L69.4581 36.1067C69.7737 36.3171 69.9805 36.6763 69.9805 37.0826C69.9805 37.732 69.4563 38.2562 68.8087 38.2562ZM45.2563 16.4434C44.9715 16.4434 44.6849 16.34 44.46 16.1314C40.9536 12.8826 38.4903 10.5971 38.4903 10.5971C38.1728 10.3032 38.044 9.85877 38.1529 9.43975C38.2617 9.02073 38.5937 8.69784 39.0145 8.59626L39.234 8.54366C39.858 8.39491 40.4856 8.77584 40.6434 9.39621C41.5613 10.247 43.5403 12.0827 46.0544 14.4118C46.5297 14.8526 46.5569 15.5945 46.1179 16.0679C45.8857 16.3164 45.5719 16.4434 45.2563 16.4434Z" fill="#4A60A1"/>
<path d="M62.9297 69.4889C62.3238 69.4889 61.8105 69.0227 61.7615 68.4096C61.7416 68.1557 61.8032 67.9144 61.9248 67.7131V37.0754C61.9248 36.4278 62.449 35.9036 63.0966 35.9036C63.7442 35.9036 64.2684 36.4278 64.2684 37.0754V68.3044C64.2684 68.9157 63.7986 69.4236 63.1891 69.4726L63.0222 69.4853C62.9914 69.4871 62.9605 69.4889 62.9297 69.4889Z" fill="#4A60A1"/>
<path d="M57.6602 25.4298C57.0144 25.4298 56.4884 24.9074 56.4884 24.2598L56.4666 13.9257C55.9714 13.7806 55.6159 13.3198 55.6249 12.7793C55.6376 12.1317 56.1764 11.6111 56.8185 11.6292L57.6584 11.6438C58.2969 11.6546 58.8084 12.1752 58.8084 12.8138L58.832 24.2544C58.8338 24.9019 58.3096 25.428 57.662 25.4298C57.662 25.4298 57.662 25.4298 57.6602 25.4298Z" fill="#4A60A1"/>
<path d="M56.1821 26.1845C56.1821 26.9702 56.8183 27.6063 57.6039 27.6063C58.3891 27.6063 59.0275 26.9707 59.0275 26.1845V12.6688C59.0275 11.8831 58.3914 11.2469 57.6057 11.2469H49.0547C48.2691 11.2469 47.6329 11.8831 47.6329 12.6688V18.2104C47.6329 18.996 48.2691 19.6322 49.0547 19.6322C49.8404 19.6322 50.4766 18.996 50.4766 18.2104V14.0906H56.1821V26.1845Z" fill="#1E2640" stroke="#1E2640" stroke-width="0.5"/>
<path d="M8.23174 36.0347L8.2315 36.0349C7.65324 36.5648 7.61072 37.4648 8.14171 38.0442C8.42145 38.3502 8.8068 38.5063 9.19129 38.5063C9.53429 38.5063 9.87793 38.3829 10.1506 38.1345L10.1508 38.1342L39.1058 11.6679L67.6465 38.1276L67.6468 38.1279C68.2231 38.6602 69.1211 38.6274 69.6559 38.0508L69.6559 38.0507C70.1888 37.476 70.1556 36.576 69.5791 36.0413L69.5791 36.0413L40.0791 8.69267C39.5372 8.18816 38.6984 8.18635 38.1528 8.6858L8.23174 36.0347Z" fill="#4A60A1" stroke="#4A60A1" stroke-width="0.5"/>
<path d="M14.8073 69.7353H63.1074L64.2775 68.3117H64.5275V68.311V33.7559C64.5275 32.9702 63.8913 32.3341 63.1056 32.3341C62.32 32.3341 61.6838 32.9702 61.6838 33.7559V66.8899H16.2291V32.702C16.2291 31.9163 15.593 31.2802 14.8073 31.2802C14.0217 31.2802 13.3855 31.9163 13.3855 32.702V68.3135C13.3855 69.0992 14.0217 69.7353 14.8073 69.7353Z" fill="#4A60A1" stroke="#4A60A1" stroke-width="0.5"/>
<path d="M50.6875 40.65H27.3125C26.7257 40.65 26.25 41.1257 26.25 41.7125V58.7125C26.25 59.2993 26.7257 59.775 27.3125 59.775H50.6875C51.2743 59.775 51.75 59.2993 51.75 58.7125V41.7125C51.75 41.1257 51.2743 40.65 50.6875 40.65Z" stroke="#1E2640" stroke-width="2.5" stroke-linecap="round" stroke-linejoin="round"/>
<path d="M44.3125 40.65V38.525C44.3125 37.9614 44.0886 37.4209 43.6901 37.0224C43.2916 36.6239 42.7511 36.4 42.1875 36.4H35.8125C35.2489 36.4 34.7084 36.6239 34.3099 37.0224C33.9114 37.4209 33.6875 37.9614 33.6875 38.525V40.65" stroke="#1E2640" stroke-width="2.5" stroke-linecap="round" stroke-linejoin="round"/>
<path d="M51.75 47.8618C47.8749 50.1029 43.4765 51.2804 39 51.2751C34.5227 51.2868 30.1226 50.1088 26.25 47.8618" stroke="#1E2640" stroke-width="2.5" stroke-linecap="round" stroke-linejoin="round"/>
<path d="M37.4062 47.0249H40.5938" stroke="#1E2640" stroke-width="2.5" stroke-linecap="round" stroke-linejoin="round"/>
</svg>
