<svg xmlns="http://www.w3.org/2000/svg" version="1.1" xmlns:xlink="http://www.w3.org/1999/xlink" xmlns:svgjs="http://svgjs.dev/svgjs" width="100%" height="100%" viewBox="0 0 1000 600"><rect width="1000" height="600" x="0" y="0" fill="white"/><g><rect width="333.3333333333333" height="333.3333333333333" rx="13.333333333333334" ry="13.333333333333334" y="213.73216308210675" fill="orange" transform="matrix(0.6527076449971804,0,0,0.6527076449971804,0,51.71078979993477)" x="191.5098876953125"/><path d="M427.27104675788496 455.398814306312L392.04996775537177 455.398814306312L357.13173551986205 398.4030527562433L320.3358533289303 398.4030527562433L320.3358533289303 455.398814306312L289.08206697416364 455.398814306312L289.08206697416364 305.3988106094521L363.945787777442 305.3988106094521Q390.74772665725646 305.3988106094521 405.3146561501274 316.93727243228744Q419.91187031969866 328.5060189318232 419.91187031969866 350.0384240657758L419.91187031969866 350.0384240657758Q419.91187031969866 365.816740626661 410.97789069309385 377.2340637426949Q402.043911066489 388.6816715354292 386.8107186862103 392.34611741617215L386.8107186862103 392.34611741617215L427.27104675788496 455.398814306312ZM388.38552187462875 351.37094984059144L388.38552187462875 351.37094984059144Q388.38552187462875 329.8082600299385 360.52361931030185 329.8082600299385L360.52361931030185 329.8082600299385L320.3358533289303 329.8082600299385L320.3358533289303 373.9633186590565L361.58358299481426 373.9633186590565Q374.7271326827685 373.9633186590565 381.54118494034844 368.0578067024872Q388.38552187462875 362.12201006921754 388.38552187462875 351.37094984059144Z " fill="black" transform="matrix(0.6527076449971804,0,0,0.6527076449971804,0,51.71078979993477)"/><path d="M737.758155971923 453.4393255219698L704.7592917146254 453.4393255219698L671.9876141303557 399.9936606921644L637.5120364983771 399.9936606921644L637.5120364983771 453.4393255219698L608.1765573436539 453.4393255219698L608.1765573436539 312.78237658359245L678.405637643393 312.78237658359245Q703.5097650129721 312.78237658359245 717.197762062901 323.60214188654453Q730.8573607787015 334.4503055236251 730.8573607787015 354.64152108897673L730.8573607787015 354.64152108897673Q730.8573607787015 369.4370531699165 722.4798522107989 380.1432251363546Q714.1023436428965 390.8777954369213 699.8179815762694 394.3139938664678L699.8179815762694 394.3139938664678L737.758155971923 453.4393255219698ZM701.2946949509504 355.89104779063L701.2946949509504 355.89104779063Q701.2946949509504 335.6714338911499 675.1966258868744 335.6714338911499L675.1966258868744 335.6714338911499L637.5120364983771 335.6714338911499L637.5120364983771 377.07620505047845L676.1621692472428 377.07620505047845Q688.4870462590045 377.07620505047845 694.9050697720418 371.53852989542423Q701.2946949509504 365.9724564062415 701.2946949509504 355.89104779063ZM800.3196860569714 455.39881057683516L800.3196860569714 455.39881057683516Q775.9539153747329 455.39881057683516 762.8906816756306 441.0008551736942Q749.8274479765283 426.57450143642467 749.8274479765283 398.99971899766746L749.8274479765283 398.99971899766746Q749.8274479765283 372.1348949121223 763.146266682787 357.7369395089814Q776.4366870549171 343.31058577171194 800.8308560712842 343.31058577171194L800.8308560712842 343.31058577171194Q823.975498385998 343.31058577171194 836.3003753977597 358.8444745399922Q848.6252524095214 374.34996497414403 848.6252524095214 403.9126308018951L848.6252524095214 403.9126308018951L848.6252524095214 404.906572496392L779.3901138042794 404.906572496392Q779.3901138042794 420.6676479377002 785.1833739664899 428.6759781619325Q790.9766341287005 436.6843083861647 801.824797765781 436.6843083861647L801.824797765781 436.6843083861647Q816.5919315125924 436.6843083861647 820.5392999564515 423.87665969421886L820.5392999564515 423.87665969421886L847.1485390348403 426.09172975624045Q835.5620187104191 455.39881057683516 800.3196860569714 455.39881057683516ZM800.3196860569714 361.0595446020139L800.3196860569714 361.0595446020139Q790.4654641143878 361.0595446020139 785.1833739664899 367.96033979523537Q779.8728854844636 374.86113498845674 779.6456988114356 387.18601200021845L779.6456988114356 387.18601200021845L821.5332416509484 387.18601200021845Q820.7664866294793 374.12277830111617 815.2288114744251 367.59116145156503Q809.6911363193709 361.0595446020139 800.3196860569714 361.0595446020139ZM894.6873503659211 455.39881057683516L894.6873503659211 455.39881057683516Q878.926274924613 455.39881057683516 870.1795880130402 446.90770867241866Q861.4329011014673 438.41660676800217 861.4329011014673 422.88271799972193L861.4329011014673 422.88271799972193Q861.4329011014673 406.1277008639168 872.3946580750619 397.40941228647245Q883.3564150486565 388.6627253748996 904.0588006283207 388.40714036774324L904.0588006283207 388.40714036774324L927.4590279501908 387.924368687559L927.4590279501908 382.5002868690188Q927.4590279501908 371.90770823909446 923.767244513488 366.7392114277106Q920.0470627426567 361.5423162821981 911.6695541747541 361.5423162821981L911.6695541747541 361.5423162821981Q903.8032156211642 361.5423162821981 900.2250255209755 365.12050638238696Q896.6468354207865 368.69869648257594 895.6812920604181 376.8206200433221L895.6812920604181 376.8206200433221L866.345812905695 375.34390666864095Q869.0720529820294 359.58283122733275 880.7721666429644 351.4609076665866Q892.4722803038995 343.31058577171194 912.9190808764074 343.31058577171194Q933.3658814489153 343.31058577171194 944.4412317590237 353.42039272145195Q955.5449804032608 363.53019967119195 955.5449804032608 382.24470186186244L955.5449804032608 382.24470186186244L955.5449804032608 421.4060046250408Q955.5449804032608 430.5218698802839 957.504465458126 433.98646664395886Q959.4639505129913 437.42266507350524 964.4052606513475 437.42266507350524L964.4052606513475 437.42266507350524Q967.6142724078661 437.42266507350524 970.5676991572285 436.93989339332103L970.5676991572285 436.93989339332103L970.5676991572285 451.96261214728867Q968.0970440880503 452.4453838274729 966.1375590331851 453.0701471782996Q964.1496756441911 453.69491052912616 962.0481989186834 453.922097202154Q959.9751205273041 454.1776822093104 957.7600504652825 454.43326721646673Q955.5449804032608 454.6604538894946 952.5631553197701 454.6604538894946L952.5631553197701 454.6604538894946Q941.9705766898456 454.6604538894946 936.9440715491043 449.4919570781107Q931.8891680742342 444.3234602667267 930.8952263797373 434.2136533169867L930.8952263797373 434.2136533169867L930.4124546995531 434.2136533169867Q918.3431626949478 455.39881057683516 894.6873503659211 455.39881057683516ZM927.4590279501908 408.8539409402512L927.4590279501908 403.4298591217109L912.9190808764074 403.68544412886723Q903.0648589338238 404.16821580905145 899.0038971534506 405.90051419088894Q894.9429353730776 407.63281257272644 892.8414586475698 411.1826043387868Q890.739981922062 414.76079443897567 890.739981922062 420.6676479377002L890.739981922062 420.6676479377002Q890.739981922062 428.30679981826216 894.3181720222509 432.1405749256074Q897.8963621224398 435.9459516988242 903.8032156211642 435.9459516988242L903.8032156211642 435.9459516988242Q910.4484258072295 435.9459516988242 915.8725076257697 432.25416826212137Q921.2965894443099 428.5623848254185 924.3636095301862 422.28635298302373Q927.4590279501908 415.98192280650045 927.4590279501908 408.8539409402512L927.4590279501908 408.8539409402512ZM1011.4613003022442 453.4393255219698L983.3753478491743 453.4393255219698L983.3753478491743 305.3988097101868L1011.4613003022442 305.3988097101868L1011.4613003022442 453.4393255219698ZM1067.633205208384 455.1716239038073L1067.633205208384 455.1716239038073Q1055.3083281966224 455.1716239038073 1048.6631180105574 448.5264137177423Q1041.9895094903636 441.85280519754866 1041.9895094903636 428.0796131452343L1041.9895094903636 428.0796131452343L1041.9895094903636 364.2685563585325L1028.2163174380494 364.2685563585325L1028.2163174380494 345.2984691607058L1043.239036192017 345.2984691607058L1052.0993164401038 320.16594345699804L1069.5926902632493 320.16594345699804L1069.5926902632493 345.2984691607058L1090.0394908357573 345.2984691607058L1090.0394908357573 364.2685563585325L1069.5926902632493 364.2685563585325L1069.5926902632493 420.44046126467236Q1069.5926902632493 428.30679981826216 1072.6597103491254 432.1405749256074Q1075.7551287691304 435.9459516988242 1081.9175672750112 435.9459516988242L1081.9175672750112 435.9459516988242Q1085.0981806974012 435.9459516988242 1091.2606192032822 434.4692383241431L1091.2606192032822 434.4692383241431L1091.2606192032822 451.96261214728867Q1080.923625580514 455.1716239038073 1067.633205208384 455.1716239038073ZM1210.7608092159394 399.2553040048238L1210.7608092159394 399.2553040048238Q1210.7608092159394 425.60895807605624 1196.0788704715137 440.51808349351Q1181.4253300612163 455.39881057683516 1155.8100326773244 455.39881057683516L1155.8100326773244 455.39881057683516Q1130.4503203005888 455.39881057683516 1116.0239665633194 440.51808349351Q1101.6260111601785 425.60895807605624 1101.6260111601785 399.2553040048238L1101.6260111601785 399.2553040048238Q1101.6260111601785 373.12883660661925 1116.0239665633194 358.2197111891656Q1130.4503203005888 343.31058577171194 1156.2928043575087 343.31058577171194L1156.2928043575087 343.31058577171194Q1182.6748567628697 343.31058577171194 1196.7036338223402 357.7369395089814Q1210.7608092159394 372.1348949121223 1210.7608092159394 399.2553040048238ZM1181.1981433881883 399.2553040048238L1181.1981433881883 399.2553040048238Q1181.1981433881883 380.02963179984073 1174.8937132116653 371.39653822478175Q1168.6176813692705 362.7918429838514 1156.8039743718214 362.7918429838514L1156.8039743718214 362.7918429838514Q1131.1886769879295 362.7918429838514 1131.1886769879295 399.2553040048238L1131.1886769879295 399.2553040048238Q1131.1886769879295 417.23144950815373 1137.464708830324 426.71649310706715Q1143.740740672719 436.20153670598046 1155.3272609971402 436.20153670598046L1155.3272609971402 436.20153670598046Q1181.1981433881883 436.20153670598046 1181.1981433881883 399.2553040048238ZM1260.7418772820697 453.4393255219698L1232.6843231631283 453.4393255219698L1232.6843231631283 370.6581815374413Q1232.6843231631283 361.79790128935446 1232.428738155972 355.89104779063Q1232.1731531488158 349.98419429190545 1231.9459664757878 345.2984691607058L1231.9459664757878 345.2984691607058L1258.5268072200483 345.2984691607058Q1258.7823922272046 347.0307675425432 1259.407155578031 356.26022613430024Q1260.0035205947293 365.4896847260573 1260.0035205947293 368.4431114754196L1260.0035205947293 368.4431114754196L1260.2591056018855 368.4431114754196Q1264.4620590529012 357.1121761581548 1267.6426724752914 352.426451026955Q1270.85168423181 347.76912422988374 1275.1682310193391 345.52565583373354Q1279.4847778068688 343.31058577171194 1286.1299879929338 343.31058577171194L1286.1299879929338 343.31058577171194Q1291.5540698114742 343.31058577171194 1294.7630815679927 344.7872991463931L1294.7630815679927 344.7872991463931L1294.7630815679927 368.2159248023917Q1287.8622863747714 366.7392114277106 1282.9209762364153 366.7392114277106L1282.9209762364153 366.7392114277106Q1272.3283976064909 366.7392114277106 1266.5351374442803 375.2303133321271Q1260.7418772820697 383.7214152365436 1260.7418772820697 400.4764323723486L1260.7418772820697 400.4764323723486L1260.7418772820697 453.4393255219698ZM1340.569594517236 453.4393255219698L1311.745285376826 453.4393255219698L1311.745285376826 422.88271799972193L1340.569594517236 422.88271799972193L1340.569594517236 453.4393255219698Z " fill="black" transform="matrix(0.6527076449971804,0,0,0.6527076449971804,0,51.71078979993477)"/></g></svg>